<?xml version="1.0" encoding="utf-8"?><svg xmlns="http://www.w3.org/2000/svg" xmlns:xlink="http://www.w3.org/1999/xlink"><symbol viewBox="0 0 22 22" fill="none" id="cart" xmlns="http://www.w3.org/2000/svg"><path d="M20.003 6.812a.917.917 0 0 0-.753-.395H6.722l-1.058-2.54A1.828 1.828 0 0 0 3.972 2.75H1.833v1.833h2.139L8.32 15.02a.916.916 0 0 0 .846.563H16.5a.919.919 0 0 0 .859-.594l2.75-7.333a.916.916 0 0 0-.106-.844zm-4.138 6.938H9.778l-2.292-5.5h10.441l-2.062 5.5zm-6.24 5.5a1.375 1.375 0 1 0 0-2.75 1.375 1.375 0 0 0 0 2.75zm6.417 0a1.375 1.375 0 1 0 0-2.75 1.375 1.375 0 0 0 0 2.75z" fill="#fff"/></symbol><symbol viewBox="0 0 14 14" fill="none" id="entre" xmlns="http://www.w3.org/2000/svg"><path d="M5.25 1.167h5.25a1.17 1.17 0 0 1 1.167 1.166v9.334a1.17 1.17 0 0 1-1.167 1.166H5.25a1.17 1.17 0 0 1-1.167-1.166V10.5H5.25v1.167h5.25V2.333H5.25V3.5H4.083V2.333A1.17 1.17 0 0 1 5.25 1.167z" fill="#969696"/><path d="M5.886 9.094l.822.823L9.625 7 6.708 4.083l-.822.823 1.505 1.51H1.75v1.167h5.64L5.887 9.094z" fill="#969696"/></symbol><symbol viewBox="0 0 14 14" fill="none" id="phone" xmlns="http://www.w3.org/2000/svg"><path d="M10.6 13.667A10.28 10.28 0 0 1 .333 3.4 3.067 3.067 0 0 1 3.4.333c.172-.001.344.015.513.047.164.024.325.064.48.12a.667.667 0 0 1 .434.5l.913 4a.667.667 0 0 1-.173.613c-.087.094-.094.1-.914.527A6.607 6.607 0 0 0 7.9 9.4c.433-.827.44-.833.533-.92a.667.667 0 0 1 .614-.173l4 .913a.667.667 0 0 1 .48.433 2.888 2.888 0 0 1 .166.994 3.067 3.067 0 0 1-3.093 3.02zm-7.2-12A1.74 1.74 0 0 0 1.667 3.4a8.94 8.94 0 0 0 8.933 8.933 1.74 1.74 0 0 0 1.733-1.733v-.22L9.24 9.667l-.193.366c-.3.58-.52 1-1.08.774A7.901 7.901 0 0 1 3.18 6c-.24-.52.213-.76.787-1.06l.366-.18-.713-3.093H3.4z" fill="#969696"/></symbol><symbol viewBox="0 0 18 18" fill="none" id="search" xmlns="http://www.w3.org/2000/svg"><path d="M17.25 15.417l-4.725-4.725a6.417 6.417 0 1 0-1.833 1.834l4.725 4.724 1.833-1.833zM2.583 7.167a4.589 4.589 0 0 1 4.584-4.584 4.589 4.589 0 0 1 4.583 4.584 4.589 4.589 0 0 1-4.583 4.583 4.589 4.589 0 0 1-4.584-4.583z" fill="#fff"/></symbol></svg>